<svg xmlns="http://www.w3.org/2000/svg" xmlns:xlink="http://www.w3.org/1999/xlink" width="500" zoomAndPan="magnify" viewBox="0 0 375 374.999991" height="500" preserveAspectRatio="xMidYMid meet" version="1.0"><defs><g/></defs><rect x="-37.5" width="450" fill="white" y="-37.499999" height="449.999989" fill-opacity="1"/><rect x="-37.5" width="450" fill="rgb(0%, 0%, 0%)" y="-37.499999" height="449.999989" fill-opacity="1"/><rect x="-37.5" width="450" fill="rgb(100%, 100%, 100%)" y="-37.499999" height="449.999989" fill-opacity="1"/><rect x="-37.5" width="450" fill="rgb(0%, 0%, 0%)" y="-37.499999" height="449.999989" fill-opacity="1"/><g fill="rgb(100%, 100%, 100%)" fill-opacity="1"><g transform="translate(15.843753, 227.999985)"><g><path d="M 55.078125 26.40625 L 55.078125 -8.515625 C 53.160156 -5.878906 50.617188 -3.5625 47.453125 -1.5625 C 44.296875 0.4375 40.195312 1.4375 35.15625 1.4375 C 29.5625 1.4375 24.5625 0.078125 20.15625 -2.640625 C 15.757812 -5.359375 12.28125 -9.078125 9.71875 -13.796875 C 7.15625 -18.515625 5.875 -23.875 5.875 -29.875 C 5.875 -35.875 7.15625 -41.210938 9.71875 -45.890625 C 12.28125 -50.578125 15.757812 -54.257812 20.15625 -56.9375 C 24.5625 -59.613281 29.5625 -60.953125 35.15625 -60.953125 C 39.632812 -60.953125 43.550781 -60.113281 46.90625 -58.4375 C 50.269531 -56.757812 52.992188 -54.398438 55.078125 -51.359375 L 56.765625 -59.515625 L 70.4375 -59.515625 L 70.4375 26.40625 Z M 38.40625 -12 C 43.363281 -12 47.421875 -13.65625 50.578125 -16.96875 C 53.734375 -20.289062 55.3125 -24.554688 55.3125 -29.765625 C 55.3125 -34.960938 53.734375 -39.21875 50.578125 -42.53125 C 47.421875 -45.851562 43.363281 -47.515625 38.40625 -47.515625 C 33.519531 -47.515625 29.476562 -45.875 26.28125 -42.59375 C 23.082031 -39.320312 21.484375 -35.082031 21.484375 -29.875 C 21.484375 -24.675781 23.082031 -20.394531 26.28125 -17.03125 C 29.476562 -13.675781 33.519531 -12 38.40625 -12 Z M 38.40625 -12 "/></g></g></g><g fill="rgb(100%, 100%, 100%)" fill-opacity="1"><g transform="translate(94.083788, 227.999985)"><g><path d="M 7.796875 0 L 7.796875 -86.40625 L 23.15625 -86.40625 L 23.15625 0 Z M 7.796875 0 "/></g></g></g><g fill="rgb(100%, 100%, 100%)" fill-opacity="1"><g transform="translate(125.1638, 227.999985)"><g><path d="M 16.078125 -68.765625 C 13.273438 -68.765625 10.972656 -69.601562 9.171875 -71.28125 C 7.378906 -72.957031 6.484375 -75.078125 6.484375 -77.640625 C 6.484375 -80.203125 7.378906 -82.300781 9.171875 -83.9375 C 10.972656 -85.582031 13.273438 -86.40625 16.078125 -86.40625 C 18.878906 -86.40625 21.179688 -85.582031 22.984375 -83.9375 C 24.785156 -82.300781 25.6875 -80.203125 25.6875 -77.640625 C 25.6875 -75.078125 24.785156 -72.957031 22.984375 -71.28125 C 21.179688 -69.601562 18.878906 -68.765625 16.078125 -68.765625 Z M 8.40625 0 L 8.40625 -59.515625 L 23.765625 -59.515625 L 23.765625 0 Z M 8.40625 0 "/></g></g></g><g fill="rgb(41.569519%, 63.919067%, 32.939148%)" fill-opacity="1"><g transform="translate(157.195307, 227.999985)"><g><path d="M 14.40625 0.84375 C 11.601562 0.84375 9.300781 -0.0351562 7.5 -1.796875 C 5.695312 -3.554688 4.796875 -5.675781 4.796875 -8.15625 C 4.796875 -10.71875 5.695312 -12.878906 7.5 -14.640625 C 9.300781 -16.398438 11.601562 -17.28125 14.40625 -17.28125 C 17.195312 -17.28125 19.492188 -16.398438 21.296875 -14.640625 C 23.097656 -12.878906 24 -10.71875 24 -8.15625 C 24 -5.675781 23.097656 -3.554688 21.296875 -1.796875 C 19.492188 -0.0351562 17.195312 0.84375 14.40625 0.84375 Z M 14.40625 0.84375 "/></g></g></g><g fill="rgb(100%, 100%, 100%)" fill-opacity="1"><g transform="translate(185.988277, 227.999985)"><g><path d="M 16.078125 -68.765625 C 13.273438 -68.765625 10.972656 -69.601562 9.171875 -71.28125 C 7.378906 -72.957031 6.484375 -75.078125 6.484375 -77.640625 C 6.484375 -80.203125 7.378906 -82.300781 9.171875 -83.9375 C 10.972656 -85.582031 13.273438 -86.40625 16.078125 -86.40625 C 18.878906 -86.40625 21.179688 -85.582031 22.984375 -83.9375 C 24.785156 -82.300781 25.6875 -80.203125 25.6875 -77.640625 C 25.6875 -75.078125 24.785156 -72.957031 22.984375 -71.28125 C 21.179688 -69.601562 18.878906 -68.765625 16.078125 -68.765625 Z M 8.40625 0 L 8.40625 -59.515625 L 23.765625 -59.515625 L 23.765625 0 Z M 8.40625 0 "/></g></g></g><g fill="rgb(100%, 100%, 100%)" fill-opacity="1"><g transform="translate(218.028287, 227.999985)"><g><path d="M 7.796875 0 L 7.796875 -59.515625 L 21.359375 -59.515625 L 22.5625 -49.4375 C 24.394531 -52.957031 27.050781 -55.753906 30.53125 -57.828125 C 34.019531 -59.910156 38.125 -60.953125 42.84375 -60.953125 C 50.195312 -60.953125 55.914062 -58.632812 60 -54 C 64.082031 -49.363281 66.125 -42.5625 66.125 -33.59375 L 66.125 0 L 50.765625 0 L 50.765625 -32.15625 C 50.765625 -37.28125 49.722656 -41.203125 47.640625 -43.921875 C 45.554688 -46.640625 42.316406 -48 37.921875 -48 C 33.597656 -48 30.054688 -46.476562 27.296875 -43.4375 C 24.535156 -40.394531 23.15625 -36.15625 23.15625 -30.71875 L 23.15625 0 Z M 7.796875 0 "/></g></g></g><g fill="rgb(100%, 100%, 100%)" fill-opacity="1"><g transform="translate(290.988327, 227.999985)"><g><path d="M 7.796875 0 L 7.796875 -86.40625 L 23.15625 -86.40625 L 23.15625 -35.40625 L 44.28125 -59.515625 L 62.515625 -59.515625 L 38.15625 -32.40625 L 66.484375 0 L 47.28125 0 L 23.15625 -29.875 L 23.15625 0 Z M 7.796875 0 "/></g></g></g></svg>